<?xml version="1.0" standalone="no" ?>
<!DOCTYPE svg PUBLIC "-//W3C//DTD SVG 1.1//EN" "http://www.w3.org/Graphics/SVG/1.1/DTD/svg11.dtd">
<svg width="263px" height="83px" viewBox="0 0 263 83" xmlns="http://www.w3.org/2000/svg" xmlns:xlink="http://www.w3.org/1999/xlink" version="1.1" >
<text x="0" y="0" stroke="transparent" fill="#000000" transform="matrix(0.0833333 0 0 0.0833333 14.5083 31.6667)" style="font:normal normal normal 240px 'Times New Roman'" >
N</text>
<text x="0" y="0" stroke="transparent" fill="#000000" transform="matrix(0.0833333 0 0 0.0833333 28.9517 36.1667)" style="font:normal normal normal 180px 'Times New Roman'" >
2</text>
<text x="0" y="0" stroke="transparent" fill="#000000" transform="matrix(0.0833333 0 0 0.0833333 36.4517 31.6667)" style="font:normal normal normal 240px 'Times New Roman'" >
 </text>
<text x="0" y="0" stroke="transparent" fill="#000000" transform="matrix(0.0833333 0 0 0.0833333 41.4517 31.6667)" style="font:normal normal normal 240px 'Times New Roman'" >
+ </text>
<text x="0" y="0" stroke="transparent" fill="#000000" transform="matrix(0.0833333 0 0 0.0833333 57.731 31.6667)" style="font:normal normal normal 240px 'Times New Roman'" >
O</text>
<text x="0" y="0" stroke="transparent" fill="#000000" transform="matrix(0.0833333 0 0 0.0833333 72.1743 36.1667)" style="font:normal normal normal 180px 'Times New Roman'" >
2</text>
<path stroke="transparent" fill="#000000" transform="matrix(0.0833333 0 0 0.0833333 -131.592 -156)" d="M 3632.2,2212.5 L 2822.2,2212.5 L 2822.2,2192.5 L 3632.2,2192.5 Z " />
<path stroke="transparent" fill="#000000" transform="matrix(0.0833333 0 0 0.0833333 -131.592 -156)" d="M 3806.2,2202.5 C 3806.2,2202.5 3606.2,2253.5 3606.2,2253.5 C 3606.2,2253.5 3631.2,2224.81 3631.2,2202.5 C 3631.2,2179.75 3606.2,2150.5 3606.2,2150.5 C 3606.2,2150.5 3806.2,2202.5 3806.2,2202.5 C 3806.2,2202.5 3806.2,2202.5 3806.2,2202.5 " />
<path stroke="#000000" stroke-width="1" fill="transparent" transform="matrix(0.0833333 0 0 0.0833333 -131.592 -156)" d="M 3806.2,2202.5 C 3806.2,2202.5 3606.2,2253.5 3606.2,2253.5 C 3606.2,2253.5 3631.2,2224.81 3631.2,2202.5 C 3631.2,2179.75 3606.2,2150.5 3606.2,2150.5 C 3606.2,2150.5 3806.2,2202.5 3806.2,2202.5 C 3806.2,2202.5 3806.2,2202.5 3806.2,2202.5 " />
<text x="0" y="0" stroke="transparent" fill="#000000" transform="matrix(0.0833333 0 0 0.0833333 209.508 33.3333)" style="font:normal normal normal 240px 'Times New Roman'" >
2 </text>
<text x="0" y="0" stroke="transparent" fill="#000000" transform="matrix(0.0833333 0 0 0.0833333 224.508 33.3333)" style="font:normal normal normal 240px 'Times New Roman'" >
NO</text>
<text x="0" y="0" stroke="transparent" fill="#000000" transform="matrix(0.0833333 0 0 0.0833333 3.50833 69.0625)" style="font:normal normal normal 240px 'Times New Roman'" >
2 </text>
<text x="0" y="0" stroke="transparent" fill="#000000" transform="matrix(0.0833333 0 0 0.0833333 18.5083 69.0625)" style="font:normal normal normal 240px 'Times New Roman'" >
NO </text>
<text x="0" y="0" stroke="transparent" fill="#000000" transform="matrix(0.0833333 0 0 0.0833333 52.395 69.0625)" style="font:normal normal normal 240px 'Times New Roman'" >
+ </text>
<text x="0" y="0" stroke="transparent" fill="#000000" transform="matrix(0.0833333 0 0 0.0833333 68.6743 69.0625)" style="font:normal normal normal 240px 'Times New Roman'" >
O</text>
<text x="0" y="0" stroke="transparent" fill="#000000" transform="matrix(0.0833333 0 0 0.0833333 83.1177 73.5625)" style="font:normal normal normal 180px 'Times New Roman'" >
2</text>
<text x="0" y="0" stroke="transparent" fill="#000000" transform="matrix(0.0833333 0 0 0.0833333 207.508 70.0625)" style="font:normal normal normal 240px 'Times New Roman'" >
2 </text>
<text x="0" y="0" stroke="transparent" fill="#000000" transform="matrix(0.0833333 0 0 0.0833333 222.508 70.0625)" style="font:normal normal normal 240px 'Times New Roman'" >
NO</text>
<text x="0" y="0" stroke="transparent" fill="#000000" transform="matrix(0.0833333 0 0 0.0833333 251.395 74.5625)" style="font:normal normal normal 180px 'Times New Roman'" >
2</text>
<path stroke="transparent" fill="#000000" transform="matrix(0.0833333 0 0 0.0833333 -131.592 -156)" d="M 3649.86,2673.25 L 2839.86,2673.25 L 2839.86,2653.25 L 3649.86,2653.25 Z " />
<path stroke="transparent" fill="#000000" transform="matrix(0.0833333 0 0 0.0833333 -131.592 -156)" d="M 3823.86,2663.25 C 3823.86,2663.25 3623.86,2714.25 3623.86,2714.25 C 3623.86,2714.25 3648.86,2685.56 3648.86,2663.25 C 3648.86,2640.5 3623.86,2611.25 3623.86,2611.25 C 3623.86,2611.25 3823.86,2663.25 3823.86,2663.25 C 3823.86,2663.25 3823.86,2663.25 3823.86,2663.25 " />
<path stroke="#000000" stroke-width="1" fill="transparent" transform="matrix(0.0833333 0 0 0.0833333 -131.592 -156)" d="M 3823.86,2663.25 C 3823.86,2663.25 3623.86,2714.25 3623.86,2714.25 C 3623.86,2714.25 3648.86,2685.56 3648.86,2663.25 C 3648.86,2640.5 3623.86,2611.25 3623.86,2611.25 C 3623.86,2611.25 3823.86,2663.25 3823.86,2663.25 C 3823.86,2663.25 3823.86,2663.25 3823.86,2663.25 " />
<text x="0" y="0" stroke="transparent" fill="#000000" transform="matrix(0.0833333 0 0 0.0833333 108.508 18)" style="font:normal normal normal 180px '@╥бкн'" >
Г┤┐Г┐╖Г│╚Г└╟</text>
</svg>
