<?xml version="1.0" standalone="no" ?>
<!DOCTYPE svg PUBLIC "-//W3C//DTD SVG 1.1//EN" "http://www.w3.org/Graphics/SVG/1.1/DTD/svg11.dtd">
<svg width="227px" height="45px" viewBox="0 0 227 45" xmlns="http://www.w3.org/2000/svg" xmlns:xlink="http://www.w3.org/1999/xlink" version="1.1" >
<text x="0" y="0" stroke="transparent" fill="#000000" transform="matrix(0.0833333 0 0 0.0833333 3.92498 31)" style="font:normal normal normal 240px 'Times New Roman'" >
O</text>
<text x="0" y="0" stroke="transparent" fill="#000000" transform="matrix(0.0833333 0 0 0.0833333 18.3683 35.5)" style="font:normal normal normal 180px 'Times New Roman'" >
3</text>
<path stroke="transparent" fill="#000000" transform="matrix(0.0833333 0 0 0.0833333 -92.175 -427.667)" d="M 2743.2,5464.5 L 1645.2,5464.5 L 1645.2,5444.5 L 2743.2,5444.5 Z " />
<path stroke="transparent" fill="#000000" transform="matrix(0.0833333 0 0 0.0833333 -92.175 -427.667)" d="M 2917.2,5454.5 C 2917.2,5454.5 2717.2,5505.5 2717.2,5505.5 C 2717.2,5505.5 2742.2,5476.81 2742.2,5454.5 C 2742.2,5431.75 2717.2,5402.5 2717.2,5402.5 C 2717.2,5402.5 2917.2,5454.5 2917.2,5454.5 C 2917.2,5454.5 2917.2,5454.5 2917.2,5454.5 " />
<path stroke="#000000" stroke-width="1" fill="transparent" transform="matrix(0.0833333 0 0 0.0833333 -92.175 -427.667)" d="M 2917.2,5454.5 C 2917.2,5454.5 2717.2,5505.5 2717.2,5505.5 C 2717.2,5505.5 2742.2,5476.81 2742.2,5454.5 C 2742.2,5431.75 2717.2,5402.5 2717.2,5402.5 C 2717.2,5402.5 2917.2,5454.5 2917.2,5454.5 C 2917.2,5454.5 2917.2,5454.5 2917.2,5454.5 " />
<text x="0" y="0" stroke="transparent" fill="#000000" transform="matrix(0.0833333 0 0 0.0833333 165.925 32.6667)" style="font:normal normal normal 240px 'Times New Roman'" >
O</text>
<text x="0" y="0" stroke="transparent" fill="#000000" transform="matrix(0.0833333 0 0 0.0833333 180.368 37.1667)" style="font:normal normal normal 180px 'Times New Roman'" >
2</text>
<text x="0" y="0" stroke="transparent" fill="#000000" transform="matrix(0.0833333 0 0 0.0833333 187.868 32.6667)" style="font:normal normal normal 240px 'Times New Roman'" >
 </text>
<text x="0" y="0" stroke="transparent" fill="#000000" transform="matrix(0.0833333 0 0 0.0833333 192.868 32.6667)" style="font:normal normal normal 240px 'Times New Roman'" >
+ </text>
<text x="0" y="0" stroke="transparent" fill="#000000" transform="matrix(0.0833333 0 0 0.0833333 209.148 32.6667)" style="font:normal normal normal 240px 'Times New Roman'" >
O</text>
<text x="0" y="0" stroke="transparent" fill="#000000" transform="matrix(0.0833333 0 0 0.0833333 67.925 21.3333)" style="font:normal normal normal 240px 'Times New Roman'" >
UV-B</text>
</svg>
