<?xml version="1.0" standalone="no" ?>
<!DOCTYPE svg PUBLIC "-//W3C//DTD SVG 1.1//EN" "http://www.w3.org/Graphics/SVG/1.1/DTD/svg11.dtd">
<svg width="345px" height="208px" viewBox="0 0 345 208" xmlns="http://www.w3.org/2000/svg" xmlns:xlink="http://www.w3.org/1999/xlink" version="1.1" >
<text x="0" y="0" stroke="transparent" fill="#000000" transform="matrix(0.0833333 0 0 0.0833333 3.84167 122)" style="font:normal normal normal 240px 'Times New Roman'" >
O</text>
<text x="0" y="0" stroke="transparent" fill="#000000" transform="matrix(0.0833333 0 0 0.0833333 18.285 126.5)" style="font:normal normal normal 180px 'Times New Roman'" >
2</text>
<path stroke="transparent" fill="#000000" transform="matrix(0.0833333 0 0 0.0833333 -128.258 -215)" d="M 3086.36,4004.5 L 2108.36,4004.5 L 2108.36,3984.5 L 3086.36,3984.5 Z " />
<path stroke="transparent" fill="#000000" transform="matrix(0.0833333 0 0 0.0833333 -128.258 -215)" d="M 3260.36,3994.5 C 3260.36,3994.5 3060.36,4045.5 3060.36,4045.5 C 3060.36,4045.5 3085.36,4016.81 3085.36,3994.5 C 3085.36,3971.75 3060.36,3942.5 3060.36,3942.5 C 3060.36,3942.5 3260.36,3994.5 3260.36,3994.5 C 3260.36,3994.5 3260.36,3994.5 3260.36,3994.5 " />
<path stroke="#000000" stroke-width="1" fill="transparent" transform="matrix(0.0833333 0 0 0.0833333 -128.258 -215)" d="M 3260.36,3994.5 C 3260.36,3994.5 3060.36,4045.5 3060.36,4045.5 C 3060.36,4045.5 3085.36,4016.81 3085.36,3994.5 C 3085.36,3971.75 3060.36,3942.5 3060.36,3942.5 C 3060.36,3942.5 3260.36,3994.5 3260.36,3994.5 C 3260.36,3994.5 3260.36,3994.5 3260.36,3994.5 " />
<text x="0" y="0" stroke="transparent" fill="#000000" transform="matrix(0.0833333 0 0 0.0833333 165.092 123.667)" style="font:normal normal normal 240px 'Times New Roman'" >
O</text>
<path stroke="transparent" fill="#000000" transform="matrix(0.0833333 0 0 0.0833333 -128.258 -215)" d="M 4931.36,4004.5 L 3953.36,4004.5 L 3953.36,3984.5 L 4931.36,3984.5 Z " />
<path stroke="transparent" fill="#000000" transform="matrix(0.0833333 0 0 0.0833333 -128.258 -215)" d="M 5105.36,3994.5 C 5105.36,3994.5 4905.36,4045.5 4905.36,4045.5 C 4905.36,4045.5 4930.36,4016.81 4930.36,3994.5 C 4930.36,3971.75 4905.36,3942.5 4905.36,3942.5 C 4905.36,3942.5 5105.36,3994.5 5105.36,3994.5 C 5105.36,3994.5 5105.36,3994.5 5105.36,3994.5 " />
<path stroke="#000000" stroke-width="1" fill="transparent" transform="matrix(0.0833333 0 0 0.0833333 -128.258 -215)" d="M 5105.36,3994.5 C 5105.36,3994.5 4905.36,4045.5 4905.36,4045.5 C 4905.36,4045.5 4930.36,4016.81 4930.36,3994.5 C 4930.36,3971.75 4905.36,3942.5 4905.36,3942.5 C 4905.36,3942.5 5105.36,3994.5 5105.36,3994.5 C 5105.36,3994.5 5105.36,3994.5 5105.36,3994.5 " />
<text x="0" y="0" stroke="transparent" fill="#000000" transform="matrix(0.0833333 0 0 0.0833333 318.842 122)" style="font:normal normal normal 240px 'Times New Roman'" >
O</text>
<text x="0" y="0" stroke="transparent" fill="#000000" transform="matrix(0.0833333 0 0 0.0833333 333.285 126.5)" style="font:normal normal normal 180px 'Times New Roman'" >
3</text>
<path stroke="#000000" stroke-width="20" fill="transparent" transform="matrix(0.0833333 0 0 0.0833333 -128.258 -215)" d="M 5521.2,3768 C 4543.62,2790.42 2822.7,2745.89 1795.87,3671.6 " />
<path stroke="transparent" fill="#000000" transform="matrix(0.0833333 0 0 0.0833333 -128.258 -215)" d="M 1694.35,3768 C 1694.35,3768 1781.83,3627.82 1781.83,3627.82 C 1781.83,3627.82 1783.38,3658.47 1795.87,3671.6 C 1808.36,3684.73 1838.92,3687.83 1838.92,3687.83 C 1838.92,3687.83 1694.35,3768 1694.35,3768 C 1694.35,3768 1694.35,3768 1694.35,3768 " />
<path stroke="#000000" stroke-width="1" fill="transparent" transform="matrix(0.0833333 0 0 0.0833333 -128.258 -215)" d="M 1694.35,3768 C 1694.35,3768 1781.83,3627.82 1781.83,3627.82 C 1781.83,3627.82 1783.38,3658.47 1795.87,3671.6 C 1808.36,3684.73 1838.92,3687.83 1838.92,3687.83 C 1838.92,3687.83 1694.35,3768 1694.35,3768 C 1694.35,3768 1694.35,3768 1694.35,3768 " />
<path stroke="#000000" stroke-width="20" fill="transparent" transform="matrix(0.0833333 0 0 0.0833333 -128.258 -215)" d="M 3733.76,4353.68 C 4245.7,4768.23 5055.4,4725.8 5521.2,4260 " />
<path stroke="transparent" fill="#000000" transform="matrix(0.0833333 0 0 0.0833333 -128.258 -215)" d="M 3629.72,4260 C 3629.72,4260 3776.39,4336.33 3776.39,4336.33 C 3776.39,4336.33 3745.91,4340.23 3733.76,4353.68 C 3721.62,4367.12 3720.86,4397.78 3720.86,4397.78 C 3720.86,4397.78 3629.72,4260 3629.72,4260 C 3629.72,4260 3629.72,4260 3629.72,4260 " />
<path stroke="#000000" stroke-width="1" fill="transparent" transform="matrix(0.0833333 0 0 0.0833333 -128.258 -215)" d="M 3629.72,4260 C 3629.72,4260 3776.39,4336.33 3776.39,4336.33 C 3776.39,4336.33 3745.91,4340.23 3733.76,4353.68 C 3721.62,4367.12 3720.86,4397.78 3720.86,4397.78 C 3720.86,4397.78 3629.72,4260 3629.72,4260 C 3629.72,4260 3629.72,4260 3629.72,4260 " />
<text x="0" y="0" stroke="transparent" fill="#000000" transform="matrix(0.0833333 0 0 0.0833333 153.842 22)" style="font:normal normal normal 240px 'Times New Roman'" >
+ </text>
<text x="0" y="0" stroke="transparent" fill="#000000" transform="matrix(0.0833333 0 0 0.0833333 170.121 22)" style="font:normal normal normal 240px 'Times New Roman'" >
O</text>
<text x="0" y="0" stroke="transparent" fill="#000000" transform="matrix(0.0833333 0 0 0.0833333 62.8417 110)" style="font:normal normal normal 240px 'Times New Roman'" >
UV-C</text>
<text x="0" y="0" stroke="transparent" fill="#000000" transform="matrix(0.0833333 0 0 0.0833333 231.842 199)" style="font:normal normal normal 240px 'Times New Roman'" >
UV-B</text>
<text x="0" y="0" stroke="transparent" fill="#000000" transform="matrix(0.0833333 0 0 0.0833333 232.842 108)" style="font:normal normal normal 240px 'Times New Roman'" >
O</text>
<text x="0" y="0" stroke="transparent" fill="#000000" transform="matrix(0.0833333 0 0 0.0833333 247.285 112.5)" style="font:normal normal normal 180px 'Times New Roman'" >
2</text>
</svg>
