<?xml version="1.0" standalone="no" ?>
<!DOCTYPE svg PUBLIC "-//W3C//DTD SVG 1.1//EN" "http://www.w3.org/Graphics/SVG/1.1/DTD/svg11.dtd">
<svg width="338px" height="34px" viewBox="0 0 338 34" xmlns="http://www.w3.org/2000/svg" xmlns:xlink="http://www.w3.org/1999/xlink" version="1.1" >
<text x="0" y="0" stroke="transparent" fill="#000000" transform="matrix(0.0833333 0 0 0.0833333 3.84167 22)" style="font:normal normal normal 240px 'Times New Roman'" >
HCl </text>
<text x="0" y="0" stroke="transparent" fill="#000000" transform="matrix(0.0833333 0 0 0.0833333 42.2082 22)" style="font:normal normal normal 240px 'Times New Roman'" >
+ </text>
<text x="0" y="0" stroke="transparent" fill="#000000" transform="matrix(0.0833333 0 0 0.0833333 58.4875 22)" style="font:normal normal normal 240px 'Times New Roman'" >
ClONO</text>
<text x="0" y="0" stroke="transparent" fill="#000000" transform="matrix(0.0833333 0 0 0.0833333 120.741 26.5)" style="font:normal normal normal 180px 'Times New Roman'" >
2</text>
<path stroke="transparent" fill="#000000" transform="matrix(0.0833333 0 0 0.0833333 -91.2583 -302)" d="M 3499.2,3848.5 L 2821.2,3848.5 L 2821.2,3828.5 L 3499.2,3828.5 Z " />
<path stroke="transparent" fill="#000000" transform="matrix(0.0833333 0 0 0.0833333 -91.2583 -302)" d="M 3673.2,3838.5 C 3673.2,3838.5 3473.2,3889.5 3473.2,3889.5 C 3473.2,3889.5 3498.2,3860.81 3498.2,3838.5 C 3498.2,3815.75 3473.2,3786.5 3473.2,3786.5 C 3473.2,3786.5 3673.2,3838.5 3673.2,3838.5 C 3673.2,3838.5 3673.2,3838.5 3673.2,3838.5 " />
<path stroke="#000000" stroke-width="1" fill="transparent" transform="matrix(0.0833333 0 0 0.0833333 -91.2583 -302)" d="M 3673.2,3838.5 C 3673.2,3838.5 3473.2,3889.5 3473.2,3889.5 C 3473.2,3889.5 3498.2,3860.81 3498.2,3838.5 C 3498.2,3815.75 3473.2,3786.5 3473.2,3786.5 C 3473.2,3786.5 3673.2,3838.5 3673.2,3838.5 C 3673.2,3838.5 3673.2,3838.5 3673.2,3838.5 " />
<text x="0" y="0" stroke="transparent" fill="#000000" transform="matrix(0.0833333 0 0 0.0833333 235.842 22)" style="font:normal normal normal 240px 'Times New Roman'" >
Cl</text>
<text x="0" y="0" stroke="transparent" fill="#000000" transform="matrix(0.0833333 0 0 0.0833333 254.765 26.5)" style="font:normal normal normal 180px 'Times New Roman'" >
2</text>
<text x="0" y="0" stroke="transparent" fill="#000000" transform="matrix(0.0833333 0 0 0.0833333 262.265 22)" style="font:normal normal normal 240px 'Times New Roman'" >
 </text>
<text x="0" y="0" stroke="transparent" fill="#000000" transform="matrix(0.0833333 0 0 0.0833333 267.265 22)" style="font:normal normal normal 240px 'Times New Roman'" >
+ </text>
<text x="0" y="0" stroke="transparent" fill="#000000" transform="matrix(0.0833333 0 0 0.0833333 283.544 22)" style="font:normal normal normal 240px 'Times New Roman'" >
HNO</text>
<text x="0" y="0" stroke="transparent" fill="#000000" transform="matrix(0.0833333 0 0 0.0833333 326.874 26.5)" style="font:normal normal normal 180px 'Times New Roman'" >
3</text>
</svg>
