<?xml version="1.0" standalone="no" ?>
<!DOCTYPE svg PUBLIC "-//W3C//DTD SVG 1.1//EN" "http://www.w3.org/Graphics/SVG/1.1/DTD/svg11.dtd">
<svg width="555px" height="264px" viewBox="0 0 555 264" xmlns="http://www.w3.org/2000/svg" xmlns:xlink="http://www.w3.org/1999/xlink" version="1.1" >
<text x="0" y="0" stroke="transparent" fill="#000000" transform="matrix(0.0833333 0 0 0.0833333 58.0917 95.3854)" style="font:normal normal normal 320px 'Times New Roman'" >
NO</text>
<path stroke="#000000" stroke-width="20" fill="transparent" transform="matrix(0.0833333 0 0 0.0833333 -202.592 -162)" d="M 4579.26,2729.18 C 4268.23,2511.39 3809.69,2551.51 3541.2,2820 " />
<path stroke="transparent" fill="#000000" transform="matrix(0.0833333 0 0 0.0833333 -202.592 -162)" d="M 4687.5,2820 C 4687.5,2820 4536.85,2748.13 4536.85,2748.13 C 4536.85,2748.13 4567.37,2743.28 4579.26,2729.18 C 4591.16,2715.09 4590.75,2684.28 4590.75,2684.28 C 4590.75,2684.28 4687.5,2820 4687.5,2820 C 4687.5,2820 4687.5,2820 4687.5,2820 " />
<path stroke="#000000" stroke-width="1" fill="transparent" transform="matrix(0.0833333 0 0 0.0833333 -202.592 -162)" d="M 4687.5,2820 C 4687.5,2820 4536.85,2748.13 4536.85,2748.13 C 4536.85,2748.13 4567.37,2743.28 4579.26,2729.18 C 4591.16,2715.09 4590.75,2684.28 4590.75,2684.28 C 4590.75,2684.28 4687.5,2820 4687.5,2820 C 4687.5,2820 4687.5,2820 4687.5,2820 " />
<path stroke="#000000" stroke-width="20" fill="transparent" transform="matrix(0.0833333 0 0 0.0833333 -202.592 -162)" d="M 3702.41,3174.43 C 3977.42,3419.09 4434.97,3405.58 4695.06,3145.11 " />
<path stroke="transparent" fill="#000000" transform="matrix(0.0833333 0 0 0.0833333 -202.592 -162)" d="M 3608.12,3072.76 C 3608.12,3072.76 3745.92,3161.02 3745.92,3161.02 C 3745.92,3161.02 3715.43,3162.33 3702.41,3174.43 C 3689.39,3186.54 3685.83,3216.9 3685.83,3216.9 C 3685.83,3216.9 3608.12,3072.76 3608.12,3072.76 C 3608.12,3072.76 3608.12,3072.76 3608.12,3072.76 " />
<path stroke="#000000" stroke-width="1" fill="transparent" transform="matrix(0.0833333 0 0 0.0833333 -202.592 -162)" d="M 3608.12,3072.76 C 3608.12,3072.76 3745.92,3161.02 3745.92,3161.02 C 3745.92,3161.02 3715.43,3162.33 3702.41,3174.43 C 3689.39,3186.54 3685.83,3216.9 3685.83,3216.9 C 3685.83,3216.9 3608.12,3072.76 3608.12,3072.76 C 3608.12,3072.76 3608.12,3072.76 3608.12,3072.76 " />
<path stroke="#000000" stroke-width="20" fill="transparent" transform="matrix(0.0833333 0 0 0.0833333 -202.592 -162)" d="M 5742.05,2130.91 C 5406.74,2150.86 5109.59,2427.04 5065.2,2760 " />
<path stroke="transparent" fill="#000000" transform="matrix(0.0833333 0 0 0.0833333 -202.592 -162)" d="M 5881.2,2136 C 5881.2,2136 5719.72,2170.94 5719.72,2170.94 C 5719.72,2170.94 5740.99,2148.64 5742.05,2130.91 C 5743.12,2113.18 5724.63,2089.43 5724.63,2089.43 C 5724.63,2089.43 5881.2,2136 5881.2,2136 C 5881.2,2136 5881.2,2136 5881.2,2136 " />
<path stroke="#000000" stroke-width="1" fill="transparent" transform="matrix(0.0833333 0 0 0.0833333 -202.592 -162)" d="M 5881.2,2136 C 5881.2,2136 5719.72,2170.94 5719.72,2170.94 C 5719.72,2170.94 5740.99,2148.64 5742.05,2130.91 C 5743.12,2113.18 5724.63,2089.43 5724.63,2089.43 C 5724.63,2089.43 5881.2,2136 5881.2,2136 C 5881.2,2136 5881.2,2136 5881.2,2136 " />
<path stroke="#000000" stroke-width="20" fill="transparent" transform="matrix(0.0833333 0 0 0.0833333 -202.592 -162)" d="M 5296.37,2960.83 C 5465.48,3129.93 5747.82,3166.58 5954.5,3046.25 " />
<path stroke="transparent" fill="#000000" transform="matrix(0.0833333 0 0 0.0833333 -202.592 -162)" d="M 6065.41,2960.83 C 6065.41,2960.83 5964.06,3091.15 5964.06,3091.15 C 5964.06,3091.15 5965.61,3060.56 5954.5,3046.25 C 5943.38,3031.95 5913.24,3025.77 5913.24,3025.77 C 5913.24,3025.77 6065.41,2960.83 6065.41,2960.83 C 6065.41,2960.83 6065.41,2960.83 6065.41,2960.83 " />
<path stroke="#000000" stroke-width="1" fill="transparent" transform="matrix(0.0833333 0 0 0.0833333 -202.592 -162)" d="M 6065.41,2960.83 C 6065.41,2960.83 5964.06,3091.15 5964.06,3091.15 C 5964.06,3091.15 5965.61,3060.56 5954.5,3046.25 C 5943.38,3031.95 5913.24,3025.77 5913.24,3025.77 C 5913.24,3025.77 6065.41,2960.83 6065.41,2960.83 C 6065.41,2960.83 6065.41,2960.83 6065.41,2960.83 " />
<path stroke="transparent" fill="#000000" transform="matrix(0.0833333 0 0 0.0833333 -202.592 -162)" d="M 7389.75,3008.75 L 6591.75,3008.75 L 6591.75,2988.75 L 7389.75,2988.75 Z " />
<path stroke="transparent" fill="#000000" transform="matrix(0.0833333 0 0 0.0833333 -202.592 -162)" d="M 7563.75,2998.75 C 7563.75,2998.75 7363.75,3049.75 7363.75,3049.75 C 7363.75,3049.75 7388.75,3021.06 7388.75,2998.75 C 7388.75,2976 7363.75,2946.75 7363.75,2946.75 C 7363.75,2946.75 7563.75,2998.75 7563.75,2998.75 C 7563.75,2998.75 7563.75,2998.75 7563.75,2998.75 " />
<path stroke="#000000" stroke-width="1" fill="transparent" transform="matrix(0.0833333 0 0 0.0833333 -202.592 -162)" d="M 7563.75,2998.75 C 7563.75,2998.75 7363.75,3049.75 7363.75,3049.75 C 7363.75,3049.75 7388.75,3021.06 7388.75,2998.75 C 7388.75,2976 7363.75,2946.75 7363.75,2946.75 C 7363.75,2946.75 7563.75,2998.75 7563.75,2998.75 C 7563.75,2998.75 7563.75,2998.75 7563.75,2998.75 " />
<text x="0" y="0" stroke="transparent" fill="#000000" transform="matrix(0.0833333 0 0 0.0833333 189.092 93.1354)" style="font:normal normal normal 320px 'Times New Roman'" >
NO</text>
<text x="0" y="0" stroke="transparent" fill="#000000" transform="matrix(0.0833333 0 0 0.0833333 227.607 98.8854)" style="font:normal normal normal 240px 'Times New Roman'" >
2</text>
<text x="0" y="0" stroke="transparent" fill="#000000" transform="matrix(0.0833333 0 0 0.0833333 316.092 95.3854)" style="font:normal normal normal 320px 'Times New Roman'" >
O</text>
<text x="0" y="0" stroke="transparent" fill="#000000" transform="matrix(0.0833333 0 0 0.0833333 437.092 95.3854)" style="font:normal normal normal 320px 'Times New Roman'" >
O3</text>
<text x="0" y="0" stroke="transparent" fill="#000000" transform="matrix(0.0833333 0 0 0.0833333 376.508 79)" style="font:normal normal normal 240px 'Times New Roman'" >
O</text>
<text x="0" y="0" stroke="transparent" fill="#000000" transform="matrix(0.0833333 0 0 0.0833333 390.952 83.5)" style="font:normal normal normal 180px 'Times New Roman'" >
2</text>
<text x="0" y="0" stroke="transparent" fill="#000000" transform="matrix(0.0833333 0 0 0.0833333 131.508 40)" style="font:normal normal normal 240px 'Times New Roman'" >
O</text>
<text x="0" y="0" stroke="transparent" fill="#000000" transform="matrix(0.0833333 0 0 0.0833333 145.952 44.5)" style="font:normal normal normal 180px 'Times New Roman'" >
2</text>
<text x="0" y="0" stroke="transparent" fill="#000000" transform="matrix(0.0833333 0 0 0.0833333 117.508 75)" style="font:normal normal normal 160px '@FangSong'" >
自由基</text>
<text x="0" y="0" stroke="transparent" fill="#000000" transform="matrix(0.0833333 0 0 0.0833333 203.508 21)" style="font:normal normal normal 160px '@FangSong'" >
自由基</text>
<text x="0" y="0" stroke="transparent" fill="#000000" transform="matrix(0.0833333 0 0 0.0833333 193.508 133)" style="font:normal normal normal 160px '@FangSong'" >
光照</text>
<text x="0" y="0" stroke="transparent" fill="#000000" transform="matrix(0.0833333 0 0 0.0833333 302.508 21.6771)" style="font:normal normal normal 240px 'Times New Roman'" >
HNO</text>
<text x="0" y="0" stroke="transparent" fill="#000000" transform="matrix(0.0833333 0 0 0.0833333 345.838 26.1771)" style="font:normal normal normal 180px 'Times New Roman'" >
3</text>
<text x="0" y="0" stroke="transparent" fill="#000000" transform="matrix(0.0833333 0 0 0.0833333 39.5083 224.431)" style="font:normal normal normal 200px 'Arial'" >
C</text>
<text x="0" y="0" stroke="transparent" fill="#000000" transform="matrix(0.0833333 0 0 0.0833333 89.5083 224.431)" style="font:normal normal normal 200px 'Arial'" >
C</text>
<path stroke="transparent" fill="#000000" transform="matrix(0.0833333 0 0 0.0833333 -202.592 -162)" d="M 3476.2,4549.17 L 3476.2,4569.17 L 3081.2,4569.17 L 3081.2,4549.17 L 3476.2,4549.17 Z " />
<path stroke="transparent" fill="#000000" transform="matrix(0.0833333 0 0 0.0833333 -202.592 -162)" d="M 3476.2,4477.17 L 3476.2,4497.17 L 3081.2,4497.17 L 3081.2,4477.17 L 3476.2,4477.17 Z " />
<text x="0" y="0" stroke="transparent" fill="#000000" transform="matrix(0.0833333 0 0 0.0833333 124.864 189.075)" style="font:normal normal normal 200px 'Arial'" >
R</text>
<path stroke="transparent" fill="#000000" transform="matrix(0.0833333 0 0 0.0833333 -202.592 -162)" d="M 3899.44,4222.78 L 3913.58,4236.92 L 3660.64,4489.87 L 3646.5,4475.73 L 3899.44,4222.78 Z " />
<text x="0" y="0" stroke="transparent" fill="#000000" transform="matrix(0.0833333 0 0 0.0833333 124.864 259.786)" style="font:normal normal normal 200px 'Arial'" >
H</text>
<path stroke="transparent" fill="#000000" transform="matrix(0.0833333 0 0 0.0833333 -202.592 -162)" d="M 3921.42,4889.24 L 3907.28,4903.38 L 3654.83,4650.94 L 3668.97,4636.8 L 3921.42,4889.24 Z " />
<text x="0" y="0" stroke="transparent" fill="#000000" transform="matrix(0.0833333 0 0 0.0833333 4.15298 189.075)" style="font:normal normal normal 200px 'Arial'" >
R</text>
<path stroke="transparent" fill="#000000" transform="matrix(0.0833333 0 0 0.0833333 -202.592 -162)" d="M 2646.82,4242.92 L 2660.96,4228.78 L 2911.4,4479.23 L 2897.26,4493.37 L 2646.82,4242.92 Z " />
<text x="0" y="0" stroke="transparent" fill="#000000" transform="matrix(0.0833333 0 0 0.0833333 4.15298 259.786)" style="font:normal normal normal 200px 'Arial'" >
H</text>
<path stroke="transparent" fill="#000000" transform="matrix(0.0833333 0 0 0.0833333 -202.592 -162)" d="M 2647.62,4902.88 L 2633.48,4888.74 L 2888.43,4633.8 L 2902.57,4647.94 L 2647.62,4902.88 Z " />
<path stroke="transparent" fill="#000000" transform="matrix(0.0833333 0 0 0.0833333 -202.592 -162)" d="M 5156.16,4570.33 L 4322.16,4570.33 L 4322.16,4550.33 L 5156.16,4550.33 Z " />
<path stroke="transparent" fill="#000000" transform="matrix(0.0833333 0 0 0.0833333 -202.592 -162)" d="M 5330.16,4560.33 C 5330.16,4560.33 5130.16,4611.33 5130.16,4611.33 C 5130.16,4611.33 5155.16,4582.65 5155.16,4560.33 C 5155.16,4537.58 5130.16,4508.33 5130.16,4508.33 C 5130.16,4508.33 5330.16,4560.33 5330.16,4560.33 C 5330.16,4560.33 5330.16,4560.33 5330.16,4560.33 " />
<path stroke="#000000" stroke-width="1" fill="transparent" transform="matrix(0.0833333 0 0 0.0833333 -202.592 -162)" d="M 5330.16,4560.33 C 5330.16,4560.33 5130.16,4611.33 5130.16,4611.33 C 5130.16,4611.33 5155.16,4582.65 5155.16,4560.33 C 5155.16,4537.58 5130.16,4508.33 5130.16,4508.33 C 5130.16,4508.33 5330.16,4560.33 5330.16,4560.33 C 5330.16,4560.33 5330.16,4560.33 5330.16,4560.33 " />
<text x="0" y="0" stroke="transparent" fill="#000000" transform="matrix(0.0833333 0 0 0.0833333 169.508 205)" style="font:normal normal normal 240px 'Times New Roman'" >
O</text>
<text x="0" y="0" stroke="transparent" fill="#000000" transform="matrix(0.0833333 0 0 0.0833333 183.952 209.5)" style="font:normal normal normal 180px 'Times New Roman'" >
2</text>
<text x="0" y="0" stroke="transparent" fill="#000000" transform="matrix(0.0833333 0 0 0.0833333 191.452 205)" style="font:normal normal normal 240px 'Times New Roman'" >
,NO</text>
<text x="0" y="0" stroke="transparent" fill="#000000" transform="matrix(0.0833333 0 0 0.0833333 297.632 224.431)" style="font:normal normal normal 200px 'Arial'" >
C</text>
<text x="0" y="0" stroke="transparent" fill="#000000" transform="matrix(0.0833333 0 0 0.0833333 347.132 224.431)" style="font:normal normal normal 200px 'Arial'" >
O</text>
<path stroke="transparent" fill="#000000" transform="matrix(0.0833333 0 0 0.0833333 -202.592 -162)" d="M 6566.68,4513.17 L 6566.68,4533.17 L 6178.68,4533.17 L 6178.68,4513.17 L 6566.68,4513.17 Z " />
<path stroke="transparent" fill="#000000" transform="matrix(0.0833333 0 0 0.0833333 -202.592 -162)" d="M 6566.68,4585.17 L 6566.68,4605.17 L 6178.68,4605.17 L 6178.68,4585.17 L 6566.68,4585.17 Z " />
<text x="0" y="0" stroke="transparent" fill="#000000" transform="matrix(0.0833333 0 0 0.0833333 262.276 189.075)" style="font:normal normal normal 200px 'Arial'" >
R</text>
<path stroke="transparent" fill="#000000" transform="matrix(0.0833333 0 0 0.0833333 -202.592 -162)" d="M 5744.3,4242.92 L 5758.44,4228.78 L 6008.88,4479.23 L 5994.74,4493.37 L 5744.3,4242.92 Z " />
<text x="0" y="0" stroke="transparent" fill="#000000" transform="matrix(0.0833333 0 0 0.0833333 262.276 259.786)" style="font:normal normal normal 200px 'Arial'" >
H</text>
<path stroke="transparent" fill="#000000" transform="matrix(0.0833333 0 0 0.0833333 -202.592 -162)" d="M 5745.11,4902.88 L 5730.96,4888.74 L 5985.91,4633.8 L 6000.05,4647.94 L 5745.11,4902.88 Z " />
<path stroke="transparent" fill="#000000" transform="matrix(0.0833333 0 0 0.0833333 -202.592 -162)" d="M 7834.94,4570.33 L 7000.94,4570.33 L 7000.94,4550.33 L 7834.94,4550.33 Z " />
<path stroke="transparent" fill="#000000" transform="matrix(0.0833333 0 0 0.0833333 -202.592 -162)" d="M 8008.94,4560.33 C 8008.94,4560.33 7808.94,4611.33 7808.94,4611.33 C 7808.94,4611.33 7833.94,4582.65 7833.94,4560.33 C 7833.94,4537.58 7808.94,4508.33 7808.94,4508.33 C 7808.94,4508.33 8008.94,4560.33 8008.94,4560.33 C 8008.94,4560.33 8008.94,4560.33 8008.94,4560.33 " />
<path stroke="#000000" stroke-width="1" fill="transparent" transform="matrix(0.0833333 0 0 0.0833333 -202.592 -162)" d="M 8008.94,4560.33 C 8008.94,4560.33 7808.94,4611.33 7808.94,4611.33 C 7808.94,4611.33 7833.94,4582.65 7833.94,4560.33 C 7833.94,4537.58 7808.94,4508.33 7808.94,4508.33 C 7808.94,4508.33 8008.94,4560.33 8008.94,4560.33 C 8008.94,4560.33 8008.94,4560.33 8008.94,4560.33 " />
<text x="0" y="0" stroke="transparent" fill="#000000" transform="matrix(0.0833333 0 0 0.0833333 386.383 204.417)" style="font:normal normal normal 200px '@FangSong'" >
光照</text>
<text x="0" y="0" stroke="transparent" fill="#000000" transform="matrix(0.0833333 0 0 0.0833333 423.053 204.417)" style="font:normal normal normal 240px 'Times New Roman'" >
,NO</text>
<text x="0" y="0" stroke="transparent" fill="#000000" transform="matrix(0.0833333 0 0 0.0833333 485.508 225.069)" style="font:normal normal bold 240px '@FangSong'" >
自由基</text>
</svg>
