<svg width="821" height="326" xmlns="http://www.w3.org/2000/svg" xmlns:xlink="http://www.w3.org/1999/xlink" overflow="hidden"><defs><clipPath id="clip0"><path d="M129 128 950 128 950 454 129 454Z" fill-rule="evenodd" clip-rule="evenodd"/></clipPath></defs><g clip-path="url(#clip0)" transform="translate(-129 -128)"><text font-family="DengXian,DengXian_MSFontService,sans-serif" font-weight="700" font-size="27" transform="translate(377.348 161)">机理<tspan x="53.3333" y="0">Ⅰ</tspan><tspan x="332.565" y="0">机理</tspan><tspan x="385.898" y="0">Ⅱ</tspan><tspan x="-81.6966" y="114">X + O</tspan><tspan font-size="18" x="-11.8633" y="120">3 </tspan></text><path d="M391.5 267.167 449.036 267.167 449.036 267.833 391.5 267.833ZM447.703 263.5 455.703 267.5 447.703 271.5Z"/><text font-family="DengXian,DengXian_MSFontService,sans-serif" font-weight="700" font-size="27" transform="translate(464.567 275)">XO + O<tspan font-size="18" x="90" y="6">2 </tspan><tspan x="-175.874" y="62">XO + O</tspan></text><path d="M393.5 330.167 446.044 330.167 446.044 330.833 393.5 330.833ZM444.711 326.5 452.711 330.5 444.711 334.5Z"/><text font-family="DengXian,DengXian_MSFontService,sans-serif" font-weight="700" font-size="27" transform="translate(473.868 337)">X + O<tspan font-size="18" x="69.8333" y="6">2 </tspan></text><path d="M279.5 372.5 567.66 372.5" stroke="#000000" stroke-width="3" stroke-miterlimit="8" fill="none" fill-rule="evenodd"/><text font-family="DengXian,DengXian_MSFontService,sans-serif" font-weight="700" font-size="27" transform="translate(299.433 430)">O<tspan font-size="18" x="20.1667" y="6">3</tspan><tspan x="37.3333" y="0">+ O</tspan></text><path d="M395.5 423.167 448.044 423.167 448.044 423.833 395.5 423.833ZM446.711 419.5 454.711 423.5 446.711 427.5Z"/><text font-family="DengXian,DengXian_MSFontService,sans-serif" font-weight="700" font-size="27" transform="translate(484.608 430)">2 O<tspan font-size="18" x="42.3333" y="6">2 </tspan><tspan x="132.478" y="-202">X + O</tspan><tspan font-size="18" x="202.311" y="-196">3 </tspan></text><path d="M712.5 219.167 770.036 219.167 770.036 219.833 712.5 219.833ZM768.703 215.5 776.703 219.5 768.703 223.5Z"/><text font-family="DengXian,DengXian_MSFontService,sans-serif" font-weight="700" font-size="27" transform="translate(786.001 228)">XO + O<tspan font-size="18" x="90" y="6">2 </tspan><tspan x="-188.122" y="111">XO + X’O</tspan></text><path d="M718.5 327.167 740.219 327.167 740.219 327.833 718.5 327.833ZM738.885 323.5 746.885 327.5 738.885 331.5Z"/><text font-family="DengXian,DengXian_MSFontService,sans-serif" font-weight="700" font-size="27" transform="translate(797.054 335)">X + X’ + O<tspan font-size="18" x="126.333" y="6">2 </tspan></text><path d="M0 0 357.744 0.453543" stroke="#000000" stroke-width="3" stroke-miterlimit="8" fill="none" fill-rule="evenodd" transform="matrix(1 0 0 -1 585.5 372.954)"/><text font-family="DengXian,DengXian_MSFontService,sans-serif" font-weight="700" font-size="27" transform="translate(622.022 429)">2 O<tspan font-size="18" x="42.3333" y="6">3</tspan></text><path d="M718.5 422.167 771.044 422.167 771.044 422.833 718.5 422.833ZM769.711 418.5 777.711 422.5 769.711 426.5Z"/><text font-family="DengXian,DengXian_MSFontService,sans-serif" font-weight="700" font-size="27" transform="translate(807.197 429)">3 O<tspan font-size="18" x="42.3334" y="6">2 </tspan><tspan x="-191.258" y="-148">X’ + O</tspan><tspan font-size="18" x="-114.591" y="-142">3 </tspan></text><path d="M718.5 273.167 769.136 273.167 769.136 273.833 718.5 273.833ZM767.803 269.5 775.803 273.5 767.802 277.5Z"/><text font-family="DengXian,DengXian_MSFontService,sans-serif" font-weight="700" font-size="27" transform="translate(784.854 281)">X’O + O<tspan font-size="18" x="96.8333" y="6">2 </tspan></text><path d="M748.5 327.167 770.219 327.167 770.219 327.833 748.5 327.833ZM768.885 323.5 776.885 327.5 768.885 331.5Z"/><text font-family="DengXian,DengXian_MSFontService,sans-serif" font-weight="700" font-size="27" transform="translate(146.486 429)">总反应式：<tspan x="-1.07632" y="-127">分反应式：</tspan></text></g></svg>